<svg xmlns="http://www.w3.org/2000/svg" xmlns:xlink="http://www.w3.org/1999/xlink" width="1920" zoomAndPan="magnify" viewBox="0 0 1440 809.999993" height="1080" preserveAspectRatio="xMidYMid meet" version="1.0"><path fill="#ffffff" d="M 1065.296875 182.757812 C 1056.070312 195.058594 1049.457031 205.566406 1043.726562 217.035156 C 1034.058594 236.355469 1029.511719 254.429688 1030.019531 271.601562 C 1030.25 279.472656 1031.277344 286.125 1033.386719 293.351562 C 1038.035156 309.308594 1047.742188 324.929688 1062.101562 339.589844 L 1063.917969 341.449219 L 1063.742188 339.488281 C 1063.179688 333.414062 1062.796875 327.515625 1062.484375 320.292969 C 1062.308594 316.191406 1062.308594 299.332031 1062.484375 295.636719 C 1062.878906 287.351562 1063.304688 281.859375 1064.074219 275.078125 C 1065.734375 260.335938 1068.785156 245.628906 1072.648438 233.710938 L 1073.023438 232.566406 L 1073.167969 232.910156 C 1073.386719 233.4375 1074.175781 236.210938 1074.640625 238.070312 C 1076.449219 245.347656 1077.785156 254.9375 1078.429688 265.425781 C 1079.726562 286.207031 1078.886719 310.460938 1075.90625 338.304688 C 1075.679688 340.390625 1075.511719 342.101562 1075.523438 342.125 C 1075.566406 342.164062 1078.449219 338.4375 1079.851562 336.539062 C 1086.320312 327.796875 1091.96875 318.234375 1096.484375 308.394531 C 1102.960938 294.273438 1107.09375 279.78125 1108.746094 265.320312 C 1109.699219 257.066406 1109.65625 247.941406 1108.640625 239.886719 C 1105.847656 217.660156 1095.519531 199.253906 1078.855469 186.828125 C 1077.089844 185.507812 1073.820312 183.308594 1072.054688 182.25 C 1070.664062 181.40625 1067.714844 179.777344 1067.601562 179.777344 C 1067.5625 179.777344 1066.523438 181.117188 1065.296875 182.757812 Z M 1065.296875 182.757812 " fill-opacity="1" fill-rule="nonzero"/><path fill="#ffffff" d="M 1016.671875 261.324219 C 997.496094 265.03125 978.933594 269.277344 961.804688 273.855469 C 928.480469 282.761719 897.023438 293.308594 865.671875 306.097656 C 814.53125 326.957031 765.699219 353.117188 720.382812 383.929688 C 672.667969 416.371094 629.398438 453.484375 590.914062 494.960938 C 550.023438 539.039062 515.152344 587.699219 487.753906 638.898438 C 485.59375 642.949219 480.519531 652.769531 480.519531 652.902344 C 480.519531 652.933594 531.585938 652.964844 593.988281 652.964844 L 707.457031 652.964844 L 707.457031 506.371094 L 709.660156 502.476562 L 711.859375 498.59375 L 863.386719 498.59375 L 863.386719 652.964844 L 948.101562 652.964844 L 948.101562 443.613281 L 950.933594 442.429688 C 957.308594 439.78125 962.84375 437.25 969.746094 433.8125 C 972.714844 432.339844 976.039062 430.644531 977.117188 430.074219 C 981.4375 427.761719 988.839844 423.578125 988.226562 423.792969 C 988.109375 423.835938 986.460938 424.449219 984.550781 425.15625 C 976.753906 428.0625 964.347656 432.296875 956.820312 434.632812 C 952.71875 435.898438 948.277344 437.238281 948.171875 437.238281 C 948.132812 437.238281 948.101562 431.996094 948.101562 425.582031 L 948.101562 413.921875 L 950.050781 413.320312 C 968.21875 407.746094 986.710938 401.007812 1004.730469 393.375 C 1023.199219 385.558594 1043.558594 375.511719 1060.949219 365.628906 C 1065.289062 363.167969 1071.359375 359.605469 1071.019531 359.71875 C 1070.933594 359.75 1069.179688 360.53125 1067.125 361.453125 C 1060.160156 364.578125 1050.761719 368.542969 1042.519531 371.835938 C 1014.28125 383.128906 982.890625 393.179688 952.667969 400.601562 C 950.355469 401.171875 948.382812 401.660156 948.289062 401.691406 C 948.109375 401.746094 948.101562 399.160156 948.101562 348.332031 L 948.101562 294.917969 L 958.566406 289.695312 C 978.496094 279.730469 995.253906 271.964844 1016.828125 262.714844 C 1019.992188 261.355469 1022.496094 260.246094 1022.378906 260.246094 C 1022.265625 260.253906 1019.703125 260.730469 1016.671875 261.324219 Z M 863.386719 380.648438 L 863.386719 416.871094 L 863.109375 416.933594 C 862.660156 417.027344 854.292969 417.96875 849.371094 418.488281 C 844.941406 418.957031 838.097656 419.609375 831.152344 420.234375 L 827.414062 420.566406 L 771.6875 420.628906 L 773.253906 419 C 777.875 414.160156 787.175781 405.160156 794.402344 398.566406 C 812.683594 381.863281 832.898438 365.6875 854.136719 350.78125 C 857.8125 348.207031 863.285156 344.429688 863.347656 344.429688 C 863.367188 344.429688 863.386719 360.726562 863.386719 380.648438 Z M 863.386719 380.648438 " fill-opacity="1" fill-rule="nonzero"/><path fill="#ffffff" d="M 395.753906 459.269531 C 350.480469 565.648438 313.417969 652.75 313.394531 652.820312 C 313.363281 652.945312 320.339844 652.964844 356.53125 652.964844 L 399.707031 652.964844 L 417.128906 610.058594 C 426.722656 586.472656 434.621094 567.039062 434.703125 566.871094 L 434.847656 566.59375 L 499.878906 566.59375 L 501.332031 564.535156 C 504.808594 559.605469 511.089844 551.132812 515.742188 545.082031 C 525.367188 532.570312 536.171875 519.53125 547.363281 506.898438 C 550.148438 503.773438 555.742188 497.617188 558.980469 494.128906 L 560.871094 492.105469 L 512.949219 492.074219 C 467.375 492.054688 465.027344 492.042969 465.089844 491.867188 C 465.402344 491.046875 516.0625 367.609375 516.117188 367.546875 C 516.15625 367.507812 527.253906 394.425781 540.78125 427.375 C 554.308594 460.316406 565.40625 487.277344 565.4375 487.277344 C 565.480469 487.277344 566.363281 486.375 567.410156 485.273438 C 573.515625 478.867188 581.933594 470.480469 590.09375 462.671875 C 618.839844 435.171875 651.3125 408.835938 684.617188 386.039062 C 690.578125 381.96875 700.957031 375.09375 705.714844 372.085938 L 707.355469 371.058594 L 707.355469 268.644531 L 622.640625 268.644531 L 622.621094 345.25 L 622.589844 421.84375 L 589.449219 343.867188 L 556.3125 265.890625 L 478.078125 265.851562 Z M 395.753906 459.269531 " fill-opacity="1" fill-rule="nonzero"/><path fill="#ffffff" d="M 863.386719 281.414062 L 863.386719 294.273438 L 864.53125 293.871094 C 865.164062 293.640625 866.203125 293.269531 866.84375 293.027344 C 869.574219 292.03125 880.257812 288.386719 885.398438 286.71875 C 904.394531 280.5 926.277344 274.257812 945.140625 269.679688 C 948.234375 268.933594 948.101562 268.976562 948.101562 268.746094 C 948.101562 268.539062 947.757812 268.539062 905.746094 268.539062 L 863.386719 268.539062 Z M 863.386719 281.414062 " fill-opacity="1" fill-rule="nonzero"/><path fill="#ffffff" d="M 978.519531 296.839844 C 970.015625 297.410156 962.054688 300.183594 954.351562 305.25 C 952.898438 306.214844 952.554688 306.472656 952.617188 306.617188 C 952.660156 306.710938 952.917969 307.449219 953.1875 308.25 C 955.015625 313.574219 957.515625 319.59375 959.84375 324.289062 C 965.65625 336.039062 972.289062 344.625 980.386719 350.886719 C 981.46875 351.714844 984.230469 353.542969 985.621094 354.34375 C 991.597656 357.757812 998.242188 359.710938 1005.6875 360.21875 C 1007.847656 360.363281 1012.976562 360.28125 1015.019531 360.0625 C 1020.8125 359.441406 1026.410156 358.226562 1032.960938 356.148438 C 1033.863281 355.859375 1034.578125 355.609375 1034.570312 355.597656 C 1034.546875 355.578125 1033.871094 355.277344 1033.0625 354.933594 C 1026.378906 352.046875 1018.207031 347.792969 1011.84375 343.878906 C 999.8125 336.476562 990.230469 328.535156 982.421875 319.480469 C 982.039062 319.035156 981.738281 318.640625 981.769531 318.621094 C 981.894531 318.496094 985.878906 319.410156 987.914062 320.042969 C 1000.785156 323.976562 1017.40625 333.257812 1036.34375 347.074219 C 1037.683594 348.050781 1038.835938 348.882812 1038.898438 348.921875 C 1039.011719 348.996094 1037.847656 345.570312 1036.988281 343.339844 C 1031.535156 329.144531 1022.558594 316.59375 1011.875 308.257812 C 1003.019531 301.34375 993.34375 297.453125 983.554688 296.878906 C 981.925781 296.789062 979.640625 296.765625 978.519531 296.839844 Z M 978.519531 296.839844 " fill-opacity="1" fill-rule="nonzero"/></svg>